<?xml version="1.0" standalone="no"?>
<!DOCTYPE svg PUBLIC "-//W3C//DTD SVG 20010904//EN"
 "http://www.w3.org/TR/2001/REC-SVG-20010904/DTD/svg10.dtd">
<svg version="1.0" xmlns="http://www.w3.org/2000/svg"
 width="348.000000pt" height="144.000000pt" viewBox="0 0 348.000000 144.000000"
 preserveAspectRatio="xMidYMid meet">

<g transform="translate(0.000000,144.000000) scale(0.100000,-0.100000)"
fill="#000000" stroke="none">
<path d="M1281 1344 c-21 -26 -21 -35 -21 -624 0 -589 0 -598 21 -624 l20 -26
439 0 439 0 20 26 c21 26 21 36 21 495 l0 469 -130 0 c-126 0 -132 1 -155 25
-24 23 -25 29 -25 155 l0 130 -157 -2 -158 -2 150 -6 150 -5 0 -127 c0 -72 -4
-124 -9 -121 -5 4 -6 1 -2 -6 4 -6 12 -9 17 -6 5 4 9 3 10 -2 0 -4 2 -18 5
-30 2 -14 -6 -32 -22 -50 -14 -15 -22 -19 -18 -10 5 13 1 17 -17 16 -16 -1
-19 -3 -7 -6 10 -3 15 -10 11 -19 -5 -13 -7 -13 -15 -2 -6 8 -7 5 -2 -12 6
-22 5 -23 -10 -11 -9 7 -16 10 -16 5 0 -5 -5 -2 -10 6 -7 10 -10 11 -11 3 -1
-7 -3 -17 -4 -23 -1 -5 -3 -17 -4 -26 0 -8 -5 -13 -10 -9 -6 3 -8 15 -6 27 3
11 1 17 -3 14 -4 -4 -7 -16 -7 -27 0 -10 -3 -18 -6 -16 -12 4 -40 -27 -35 -39
3 -7 1 -16 -4 -19 -9 -6 -14 8 -11 28 1 5 -3 6 -9 2 -6 -3 -8 -10 -5 -15 8
-12 -6 -41 -16 -34 -5 3 -9 1 -9 -5 0 -5 5 -13 10 -16 6 -3 10 -2 10 3 0 13
28 10 34 -4 6 -15 -55 -14 -66 1 -5 6 -8 4 -8 -4 0 -11 -5 -9 -22 5 -14 12
-18 13 -10 3 6 -9 10 -18 7 -20 -2 -3 88 -5 200 -4 113 0 205 -3 205 -7 0 -4
-132 -9 -292 -10 l-293 -3 0 -250 0 -250 -50 -45 c-27 -25 -41 -34 -30 -20 11
14 25 28 31 32 6 4 10 19 9 33 -2 14 1 23 5 20 5 -3 6 -13 3 -22 -4 -10 -2
-14 5 -9 13 8 12 45 -1 43 -14 -3 -25 36 -16 58 7 17 8 18 10 3 3 -33 4 -36 9
-42 3 -2 5 22 4 55 -1 33 -5 63 -9 67 -4 4 -5 -6 -4 -23 3 -21 0 -29 -9 -27
-8 1 -11 -2 -8 -7 4 -5 -6 -21 -21 -35 -27 -26 -42 -28 -27 -4 11 18 12 48 2
42 -5 -4 -7 -12 -4 -20 3 -8 0 -17 -8 -20 -7 -3 -13 -11 -13 -19 0 -8 4 -12 9
-9 4 3 8 1 8 -4 0 -6 -7 -12 -15 -16 -8 -3 -15 0 -15 6 0 6 -3 8 -7 5 -3 -4 1
-15 9 -24 23 -28 28 -50 13 -63 -14 -11 -9 -54 5 -45 5 3 12 0 16 -6 4 -7 3
-9 -4 -5 -6 3 -13 2 -17 -4 -4 -6 -10 -8 -15 -5 -4 3 -14 -3 -21 -12 -12 -14
-12 -16 0 -9 9 6 12 5 9 -4 -2 -8 -10 -16 -16 -18 -9 -3 -12 135 -12 586 0
325 3 598 6 607 4 10 21 23 38 31 26 11 27 13 9 14 -12 0 -31 -12 -42 -26z
m680 -295 c16 -11 34 -29 39 -40 9 -16 7 -19 -10 -19 -11 0 -20 5 -20 11 0 5
5 7 12 3 7 -4 8 -3 4 5 -4 6 -12 9 -17 5 -6 -3 -13 3 -16 15 -3 11 -10 18 -16
14 -5 -3 -7 -1 -3 5 3 5 0 13 -6 15 -7 3 -9 6 -5 6 5 1 22 -8 38 -20z m-5 -44
c10 -15 13 -32 9 -46 -5 -14 -4 -19 4 -15 7 5 9 1 4 -11 -5 -15 -3 -16 8 -5
18 17 29 15 29 -6 0 -10 6 -24 13 -31 10 -10 9 -12 -3 -9 -8 2 -14 -2 -13 -7
1 -6 -12 -11 -28 -10 -16 0 -27 4 -26 10 2 5 12 10 23 9 14 -1 19 6 21 25 l1
26 -14 -25 c-12 -22 -13 -23 -14 -5 -1 18 -2 18 -10 -2 -5 -13 -12 -23 -15
-23 -9 0 -1 34 10 43 6 6 5 10 -3 14 -10 4 -10 8 -2 18 9 10 9 19 0 32 -9 16
-10 15 -4 -6 4 -15 2 -21 -4 -17 -7 4 -9 -2 -7 -16 4 -23 4 -23 -12 -3 -13 17
-15 17 -10 2 4 -11 1 -20 -7 -23 -8 -3 -27 -23 -42 -45 -26 -38 -28 -39 -48
-22 -12 10 -15 11 -9 3 10 -11 10 -17 0 -29 -10 -14 -10 -14 3 -5 8 6 23 10
33 9 11 -2 15 1 10 8 -3 7 3 4 15 -7 21 -18 21 -18 17 3 -2 12 0 19 6 16 5 -4
9 -14 10 -23 0 -14 2 -13 9 3 8 20 9 20 9 -1 1 -20 -3 -21 -90 -20 -64 1 -93
6 -99 15 -9 16 -2 41 12 41 5 0 7 -4 4 -9 -4 -5 2 -8 11 -6 10 1 25 -3 33 -9
13 -9 13 -9 2 6 -9 11 -10 18 -2 23 8 5 8 11 -1 21 -10 12 -14 12 -21 2 -7
-10 -9 -10 -5 2 2 8 11 14 21 12 14 -3 22 18 17 50 -1 8 26 4 35 -5 4 -4 25
11 46 33 22 22 44 40 49 40 4 0 16 -11 25 -25z m45 -45 c6 0 8 4 5 8 -3 5 1 9
7 9 7 0 14 -14 15 -31 2 -16 8 -37 15 -45 11 -14 10 -14 -5 -2 -10 7 -18 24
-18 36 0 15 -6 22 -16 21 -9 0 -18 5 -20 12 -1 7 0 8 3 2 2 -5 9 -10 14 -10z
m59 -45 c14 -19 14 -19 -2 -6 -10 7 -18 18 -18 24 0 6 1 8 3 6 1 -2 9 -13 17
-24z m-126 -17 c-3 -4 0 -16 5 -27 7 -13 8 -28 2 -43 l-10 -23 -2 23 c-1 12
-3 27 -4 32 -1 6 -3 17 -4 25 0 8 -6 15 -11 15 -7 0 -7 -6 0 -19 7 -13 7 -22
0 -26 -5 -3 -10 3 -10 15 0 19 -1 20 -16 6 -8 -9 -12 -21 -8 -27 4 -8 3 -9 -4
-5 -18 11 -15 19 20 55 22 23 33 28 39 19 4 -6 6 -16 3 -20z m-162 -17 c3 8 8
11 12 8 4 -3 1 -11 -6 -17 -17 -13 -53 11 -43 29 6 8 12 5 20 -11 9 -17 14
-19 17 -9z m438 -38 l0 -64 -30 34 c-25 29 -28 38 -20 63 4 16 9 24 9 18 1 -6
8 -11 16 -11 10 0 12 4 5 12 -7 8 -5 12 5 12 12 0 15 -14 15 -64z m-163 15
c-3 -8 -6 -5 -6 6 -1 11 2 17 5 13 3 -3 4 -12 1 -19z m-81 -15 c-4 -9 -1 -20
6 -25 9 -5 10 -8 1 -8 -6 0 -14 4 -17 9 -6 10 3 41 11 41 3 0 2 -8 -1 -17z
m110 -59 c2 -20 0 -33 -3 -30 -3 2 -6 21 -8 41 -1 19 1 33 4 30 3 -4 6 -22 7
-41z m43 23 c0 -9 -2 -8 -6 1 -2 6 -10 9 -15 6 -7 -4 -8 -2 -4 5 9 13 26 5 25
-12z m2 -21 c27 24 24 12 -4 -14 l-23 -21 -1 27 c0 15 1 19 4 9 5 -18 6 -18
24 -1z m-91 -251 l0 -245 -290 0 -290 0 0 245 0 245 290 0 290 0 0 -245z m17
-107 c-1 -68 -3 -15 -3 117 0 132 2 187 3 123 2 -64 2 -172 0 -240z m120 327
c0 -8 -4 -12 -9 -9 -5 3 -6 10 -3 15 9 13 12 11 12 -6z m40 -67 c-2 -18 -4 -6
-4 27 0 33 2 48 4 33 2 -15 2 -42 0 -60z m0 -150 c-2 -24 -4 -7 -4 37 0 44 2
63 4 43 2 -21 2 -57 0 -80z m-815 -219 c2 -44 -2 -60 -12 -54 -8 5 -7 12 2 23
8 10 9 13 1 9 -7 -4 -16 0 -21 10 -8 13 -10 10 -9 -14 1 -17 5 -29 9 -27 16
10 7 -24 -10 -39 -23 -21 -38 -10 -17 13 12 14 12 19 0 43 -8 15 -10 25 -5 22
5 -3 11 4 15 15 7 22 21 26 28 8 2 -7 2 -2 0 12 -3 18 -1 22 7 14 6 -6 11 -21
12 -35z m354 -46 c-148 -3 -157 -5 -145 -21 13 -16 12 -16 -6 -1 -14 12 -38
16 -83 15 -34 0 -62 2 -62 7 0 4 102 6 228 5 195 -2 205 -3 68 -5z m212 0
c-10 -2 -26 -2 -35 0 -10 3 -2 5 17 5 19 0 27 -2 18 -5z m-536 -36 c-12 -13
-19 -27 -15 -32 5 -4 2 -5 -5 -1 -11 6 -8 13 9 32 12 13 25 24 27 24 3 0 -4
-10 -16 -23z m87 4 c6 -10 10 -9 14 3 4 10 15 15 29 13 29 -5 33 -20 11 -38
-15 -11 -16 -11 -5 1 20 23 14 35 -8 15 -11 -10 -17 -21 -15 -26 3 -4 -6 -6
-21 -3 -16 3 -23 1 -19 -6 3 -5 1 -18 -5 -27 -9 -15 -10 -14 -4 7 5 19 4 22
-6 14 -16 -16 -23 -87 -8 -78 7 4 8 3 4 -5 -9 -14 -28 -4 -24 13 2 6 -1 11 -7
11 -5 0 -9 -2 -9 -5 1 -3 5 -15 9 -27 6 -22 4 -23 -62 -23 -46 0 -76 5 -89 15
-18 14 -18 16 -1 26 9 5 17 18 18 27 0 11 2 12 6 4 3 -7 0 -19 -6 -26 -17 -21
7 -36 45 -27 3 0 2 6 -1 11 -5 8 -11 7 -21 -1 -10 -8 -14 -8 -14 0 0 6 5 11
11 11 5 0 8 4 4 9 -3 5 0 13 6 17 7 4 9 3 6 -3 -4 -6 0 -16 8 -23 8 -7 13 -16
10 -19 -2 -4 2 -8 10 -8 19 0 19 6 -2 29 -13 15 -14 21 -4 31 10 9 11 8 5 -8
-7 -18 -6 -19 12 -5 18 14 18 14 5 -2 -7 -10 -10 -18 -5 -18 18 0 31 16 28 33
-2 14 1 16 11 7 8 -7 16 -7 19 -2 8 13 -18 34 -29 24 -5 -4 -5 -1 -1 6 4 7 11
10 16 7 4 -3 10 -2 13 2 2 5 2 3 1 -4 -4 -18 13 -26 19 -9 3 7 -1 23 -9 34 -9
14 -11 23 -4 27 6 4 10 3 9 -2 -4 -15 13 -43 22 -37 5 3 6 11 2 17 -13 21 -11
35 4 33 8 -1 18 -8 22 -15z m-132 -56 c0 -8 -4 -12 -9 -9 -5 3 -6 10 -3 15 9
13 12 11 12 -6z m228 -97 c3 -2 -30 -5 -73 -5 -42 0 -67 3 -54 6 26 7 120 6
127 -1z m145 -3 c0 -1 -26 -2 -57 -2 -52 0 -54 0 -18 6 35 6 75 4 75 -4z"/>
<path d="M1919 1015 c-1 -3 -2 -11 -3 -17 -1 -7 -7 -12 -12 -11 -6 1 -11 -5
-11 -13 0 -12 4 -11 18 2 10 9 16 20 14 24 -3 5 1 11 7 13 10 4 10 6 1 6 -7 1
-14 -1 -14 -4z"/>
<path d="M1858 950 c-7 -11 -16 -20 -21 -20 -4 0 -6 4 -2 9 3 5 1 13 -5 16 -6
4 -9 3 -8 -2 1 -4 -3 -19 -10 -33 -11 -21 -11 -22 0 -8 10 12 18 14 31 6 15
-8 16 -12 5 -26 -12 -15 -11 -16 5 -3 11 9 14 18 8 24 -10 10 -3 40 8 32 4 -2
8 2 8 10 0 20 -4 19 -19 -5z"/>
<path d="M1821 896 c-9 -10 -7 -17 6 -27 16 -12 17 -12 6 2 -10 12 -10 18 -1
27 7 7 9 12 6 12 -3 0 -11 -6 -17 -14z"/>
<path d="M1737 839 c7 -7 15 -10 18 -7 3 3 -2 9 -12 12 -14 6 -15 5 -6 -5z"/>
<path d="M1510 681 l0 -40 100 -3 100 -3 0 43 0 42 -100 0 -100 0 0 -39z m190
-1 l0 -30 -88 0 -88 0 1 30 0 30 87 0 88 0 0 -30z"/>
<path d="M1543 680 c-2 -22 40 -24 54 -1 10 16 7 18 -21 18 -22 0 -32 -5 -33
-17z m42 0 c-3 -5 -10 -10 -16 -10 -5 0 -9 5 -9 10 0 6 7 10 16 10 8 0 12 -4
9 -10z"/>
<path d="M1620 696 c0 -2 7 -7 16 -10 8 -3 12 -2 9 4 -6 10 -25 14 -25 6z"/>
<path d="M1673 681 c6 -8 7 -12 2 -9 -6 4 -17 3 -25 -3 -11 -6 -8 -9 12 -9 20
0 26 5 25 18 0 10 -7 19 -14 19 -10 0 -10 -3 0 -16z"/>
<path d="M1606 672 c-3 -5 1 -9 9 -9 8 0 12 4 9 9 -3 4 -7 8 -9 8 -2 0 -6 -4
-9 -8z"/>
<path d="M1770 678 l0 -43 97 3 98 3 0 40 0 39 -97 0 -98 0 0 -42z m94 -18
c65 0 72 2 73 20 2 18 -4 20 -63 20 -38 0 -63 -4 -59 -9 3 -5 2 -12 -3 -15 -4
-2 -9 4 -9 15 -2 17 5 19 73 19 l74 0 0 -30 0 -30 -85 0 -85 0 1 33 c2 30 2
30 6 5 4 -28 5 -28 77 -28z"/>
<path d="M1510 538 l0 -43 100 0 100 0 0 43 0 42 -100 0 -100 0 0 -42z m190
-3 c0 -25 -1 -25 -87 -25 -87 0 -88 0 -88 25 0 25 1 25 88 25 86 0 87 0 87
-25z"/>
<path d="M1540 536 c0 -11 18 -14 75 -15 60 -1 75 2 75 14 0 18 -36 20 -43 3
-4 -10 -6 -10 -6 0 -1 6 -6 12 -12 12 -5 0 -7 -4 -4 -10 3 -5 -1 -10 -10 -10
-9 0 -13 5 -10 10 3 6 1 10 -4 10 -6 0 -11 -4 -11 -10 0 -5 -5 -10 -11 -10 -5
0 -7 5 -4 10 3 6 -3 10 -14 10 -12 0 -21 -6 -21 -14z"/>
<path d="M1770 538 l0 -43 97 2 96 1 0 39 0 38 -96 3 -97 3 0 -43z m180 -3 c0
-25 -1 -25 -85 -25 -84 0 -85 0 -85 25 0 25 1 25 85 25 84 0 85 0 85 -25z"/>
<path d="M1790 535 c0 -9 10 -15 26 -15 17 0 23 4 18 13 -6 10 -4 10 7 0 19
-19 99 -17 99 2 0 12 -15 15 -75 15 -60 0 -75 -3 -75 -15z"/>
<path d="M1510 393 l0 -43 100 0 100 0 0 43 0 42 -100 0 -100 0 0 -42z m190
-2 c0 -28 -1 -28 -66 -30 -56 -1 -64 0 -52 13 7 8 15 10 16 5 2 -5 8 -9 13 -9
6 0 8 4 5 8 -3 5 1 9 9 9 8 0 12 -4 9 -9 -3 -4 0 -8 6 -8 7 0 10 7 6 18 -5 14
-4 14 9 -2 11 -14 15 -16 15 -5 0 12 2 12 10 -1 8 -12 10 -12 10 5 0 18 -7 20
-75 20 -68 1 -75 -1 -75 -19 0 -16 3 -17 12 -8 7 7 16 12 21 12 5 0 2 -7 -7
-15 -22 -23 -33 -18 -38 15 l-5 30 89 0 88 0 0 -29z"/>
<path d="M1770 395 l0 -45 98 0 97 0 0 45 1 45 -98 0 -98 0 0 -45z m17 -22
c-3 -10 -5 -2 -5 17 0 19 2 27 5 18 2 -10 2 -26 0 -35z m163 17 c0 -16 -4 -30
-8 -30 -5 0 -7 14 -4 30 2 17 6 30 8 30 2 0 4 -13 4 -30z m-131 -13 c8 -10 7
-14 -2 -14 -8 0 -14 6 -14 14 0 7 1 13 2 13 2 0 8 -6 14 -13z m29 -12 c-3 -3
-9 2 -12 12 -6 14 -5 15 5 6 7 -7 10 -15 7 -18z"/>
<path d="M1339 233 c-13 -16 -12 -17 4 -4 16 13 21 21 13 21 -2 0 -10 -8 -17
-17z"/>
<path d="M1486 241 c-4 -5 2 -15 12 -20 15 -8 23 -6 37 9 10 11 13 20 8 20 -6
0 -14 -8 -18 -17 -6 -17 -7 -17 -20 0 -8 11 -16 14 -19 8z"/>
<path d="M1420 110 c0 -11 4 -20 9 -20 5 0 7 9 4 20 -3 11 -7 20 -9 20 -2 0
-4 -9 -4 -20z"/>
<path d="M1401 104 c0 -11 3 -14 6 -6 3 7 2 16 -1 19 -3 4 -6 -2 -5 -13z"/>
<path d="M1408 1363 c6 -2 18 -2 25 0 6 3 1 5 -13 5 -14 0 -19 -2 -12 -5z"/>
<path d="M1508 1363 c7 -3 16 -2 19 1 4 3 -2 6 -13 5 -11 0 -14 -3 -6 -6z"/>
<path d="M1849 1183 c-13 -16 -12 -17 4 -4 16 13 21 21 13 21 -2 0 -10 -8 -17
-17z"/>
<path d="M1853 1085 c0 -8 4 -12 9 -9 5 3 6 10 3 15 -9 13 -12 11 -12 -6z"/>
<path d="M1884 1052 c-1 -15 1 -21 3 -14 3 6 9 9 15 6 6 -4 5 2 -1 15 -15 27
-16 27 -17 -7z"/>
<path d="M1856 1043 c-6 -14 -5 -15 5 -6 7 7 10 15 7 18 -3 3 -9 -2 -12 -12z"/>
<path d="M1716 942 c-3 -5 1 -9 9 -9 8 0 12 4 9 9 -3 4 -7 8 -9 8 -2 0 -6 -4
-9 -8z"/>
<path d="M1650 885 c0 -2 6 -8 13 -14 10 -8 14 -7 14 2 0 8 -6 14 -14 14 -7 0
-13 -1 -13 -2z"/>
<path d="M1359 583 c-13 -16 -12 -17 4 -4 16 13 21 21 13 21 -2 0 -10 -8 -17
-17z"/>
<path d="M1397 593 c-2 -5 -3 -15 -2 -23 1 -22 -17 -31 -35 -17 -12 9 -13 9
-3 -3 19 -21 -4 -45 -26 -28 -14 11 -14 11 -3 -4 9 -11 9 -18 3 -23 -13 -7
-10 -55 2 -55 5 0 3 -8 -4 -17 -12 -16 -12 -17 2 -6 9 7 19 11 23 8 3 -3 2 1
-4 7 -15 18 -12 32 3 19 22 -17 28 -1 12 30 -14 26 -13 29 12 49 16 13 29 17
31 11 7 -20 18 -11 18 13 0 14 -5 24 -10 23 -6 -1 -10 4 -8 11 2 13 -5 17 -11
5z m-38 -123 c11 -24 11 -24 -3 -6 -11 13 -16 15 -16 6 0 -7 -3 -11 -6 -7 -4
3 -4 14 0 23 7 19 9 18 25 -16z"/>
<path d="M1381 511 c-7 -13 -6 -23 4 -37 15 -18 15 -18 8 1 -6 18 -5 19 13 5
18 -14 18 -14 3 5 -9 11 -14 26 -12 33 7 19 -5 14 -16 -7z"/>
<path d="M1410 511 c0 -6 4 -12 8 -15 5 -3 9 1 9 9 0 8 -4 15 -9 15 -4 0 -8
-4 -8 -9z"/>
<path d="M1300 424 c0 -14 -4 -23 -10 -19 -14 9 -12 -1 3 -13 10 -9 13 -4 15
23 2 19 0 35 -3 35 -3 0 -5 -12 -5 -26z"/>
<path d="M1381 437 c-8 -10 -7 -14 2 -14 8 0 14 6 14 14 0 7 -1 13 -2 13 -2 0
-8 -6 -14 -13z"/>
<path d="M1371 394 c0 -11 3 -14 6 -6 3 7 2 16 -1 19 -3 4 -6 -2 -5 -13z"/>
<path d="M1289 299 c-6 -30 -6 -38 -1 -38 20 3 25 -3 12 -12 -12 -8 -12 -10
-1 -7 19 5 22 34 5 49 -8 6 -14 10 -15 8z"/>
<path d="M1281 194 c0 -11 3 -14 6 -6 3 7 2 16 -1 19 -3 4 -6 -2 -5 -13z"/>
<path d="M1300 201 c0 -6 4 -13 10 -16 6 -3 7 1 4 9 -7 18 -14 21 -14 7z"/>
</g>
</svg>
